<svg version="1.0" xmlns="http://www.w3.org/2000/svg" width="436.000000pt" height="480.000000pt"
  viewBox="0 0 436.000000 480.000000" preserveAspectRatio="xMidYMid meet">
  <metadata>
    Created by potrace 1.16, written by Peter Selinger 2001-2019
  </metadata>
  <g transform="translate(0.000000,480.000000) scale(0.100000,-0.100000)">
    <path d="M3545 4738 c-76 -76 -123 -108 -160 -108 -31 0 -235 -49 -287 -69
-13 -5 -49 -12 -80 -16 -45 -6 -65 -3 -103 14 -103 45 -196 23 -415 -101 -169
-95 -184 -109 -176 -156 6 -42 74 -146 144 -223 29 -31 52 -62 52 -69 0 -19
-148 -278 -228 -398 -91 -137 -135 -176 -272 -245 l-105 -52 -260 -6 c-293 -7
-299 -8 -544 -107 -112 -46 -131 -57 -188 -114 -94 -92 -201 -229 -269 -342
-70 -118 -164 -222 -231 -256 -55 -29 -127 -32 -232 -13 -36 7 -67 10 -70 8
-9 -10 54 -66 103 -90 40 -20 65 -25 127 -25 119 0 121 -9 28 -207 -55 -117
-79 -221 -79 -340 0 -116 -12 -174 -90 -428 -32 -104 -67 -217 -76 -250 -11
-36 -39 -90 -71 -135 -67 -94 -73 -113 -42 -146 60 -64 147 -94 272 -94 88 0
89 0 123 34 19 19 34 44 34 56 0 12 -12 61 -26 109 -33 106 -32 142 6 257 102
304 499 705 813 820 38 13 66 16 138 11 122 -8 129 -14 129 -124 0 -94 -13
-129 -83 -223 -52 -69 -57 -118 -28 -250 41 -184 46 -194 93 -218 80 -39 179
-51 248 -30 46 15 51 35 22 83 -10 17 -34 75 -52 129 -30 91 -32 105 -26 180
7 83 28 133 76 184 23 24 77 30 110 12 19 -10 19 -35 20 -811 0 -580 3 -807
12 -822 25 -48 124 -112 220 -142 60 -19 101 -25 168 -25 86 0 90 1 107 27 22
33 22 123 1 173 -9 19 -39 67 -68 105 -29 39 -73 112 -97 163 l-45 93 5 127
c7 171 23 368 31 381 4 6 11 52 16 103 18 198 43 271 118 350 l26 28 161 0
162 0 184 125 c169 115 188 125 230 125 55 0 79 -21 79 -68 0 -18 13 -81 29
-140 41 -150 51 -203 73 -402 31 -291 35 -312 62 -396 14 -45 29 -110 33 -145
5 -53 12 -72 42 -111 71 -91 152 -119 310 -105 100 9 151 41 151 95 0 22 -46
106 -105 192 -46 68 -115 203 -115 227 0 10 -7 36 -15 58 -25 71 -20 341 10
525 14 85 30 173 36 195 5 22 25 124 44 226 19 102 48 223 64 269 39 105 40
170 7 260 -25 67 -47 109 -174 338 -115 205 -146 323 -106 392 15 24 35 33
148 66 154 45 418 172 491 236 72 63 75 75 75 257 0 88 -3 167 -6 176 -8 21
-63 47 -147 71 -65 18 -69 21 -96 69 -15 28 -36 77 -46 110 -29 98 -63 154
-141 236 -52 54 -74 85 -74 103 0 47 22 40 84 -27 57 -61 64 -66 91 -59 47 13
44 43 -14 120 -62 83 -108 128 -189 181 -86 56 -112 54 -177 -11z m-671 -1892
c20 -15 44 -43 55 -64 l18 -36 16 30 c32 61 104 104 174 104 81 -1 171 -69
192 -147 36 -128 -17 -246 -156 -351 -43 -31 -110 -88 -150 -126 l-73 -69 -37
38 c-21 21 -72 62 -113 93 -118 86 -206 182 -225 244 -31 106 -15 198 45 258
47 47 85 60 162 57 43 -3 64 -9 92 -31z" />
  </g>
</svg>